<svg width="38" height="38" viewBox="0 0 38 38" fill="none" xmlns="http://www.w3.org/2000/svg">
<g clip-path="url(#clip0_1272_1549)">
<path d="M1.58167 19.0813C1.58167 9.41632 9.41668 1.5813 19.0817 1.5813C28.7466 1.5813 36.5817 9.41632 36.5817 19.0813C36.5817 28.7463 28.7466 36.5813 19.0817 36.5813C9.41668 36.5813 1.58167 28.7463 1.58167 19.0813Z" fill="#FF6058" stroke="black"/>
<path d="M37.4064 18.9998C37.4064 29.1677 29.1681 37.406 19.0001 37.406C8.83215 37.406 0.593872 29.1677 0.593872 18.9998C0.593872 8.83179 8.83215 0.593506 19.0001 0.593506C29.1681 0.593506 37.4064 8.83179 37.4064 18.9998ZM15.7345 10.3904V18.9998H10.4724C9.67825 18.9998 9.27747 19.9646 9.84153 20.5212L18.3693 29.0044C18.7181 29.3533 19.2747 29.3533 19.6236 29.0044L28.1587 20.5212C28.7228 19.9572 28.322 18.9998 27.5279 18.9998H22.2657L22.2657 10.3904C22.2657 9.90054 21.865 9.49976 21.3751 9.49976H16.6251C16.1353 9.49976 15.7345 9.90054 15.7345 10.3904Z" fill="#212121"/>
</g>
<rect x="37.5001" y="37.4998" width="37" height="37" rx="18.5" transform="rotate(-180 37.5001 37.4998)" stroke="black"/>
<defs>
<clipPath id="clip0_1272_1549">
<rect x="38.0001" y="37.9998" width="38" height="38" rx="19" transform="rotate(-180 38.0001 37.9998)" fill="white"/>
</clipPath>
</defs>
</svg>
